<svg
    className="s-eye"
    xmlns="http://www.w3.org/2000/svg"
    width="17"
    height="15"
    viewBox="0 0 17 15"
    fill="none"
>
    <path
        d="M3.09282 1H10.4177C11.5687 1 12.5105 1.94177 12.5105 3.09282V7.38309C12.5105 8.53414 11.5687 9.47591 10.4177 9.47591H6.28436L3.40674 11.9873V9.47591H2.46497C1.62785 9.47591 1 8.84806 1 8.06326V3.09282C1 1.94177 1.94177 1 3.09282 1Z"
        stroke="url(#paint0_linear_1_3490)"
        strokeLinecap="round"
        strokeLinejoin="round"
    />
    <path
        d="M5.7085 10.4179C5.7085 10.9934 6.17938 11.4643 6.7549 11.5166L10.365 11.6212L13.2426 14.1326V11.6212H14.1844C14.9692 11.6212 15.6494 10.9934 15.6494 10.1563V5.18583C15.6494 4.03479 14.7076 3.09302 13.5566 3.09302H12.5102"
        stroke="url(#paint1_linear_1_3490)"
        strokeLinecap="round"
        strokeLinejoin="round"
    />
    <defs>
        <linearGradient
            id="paint0_linear_1_3490"
            x1="7.33077"
            y1="-0.729481"
            x2="7.92253"
            y2="18.736"
            gradientUnits="userSpaceOnUse"
        >
            <stop stopColor="var(--gradient-icons1)" />
            <stop offset="1" stopColor="var(--gradient-icons2)" />
        </linearGradient>
        <linearGradient
            id="paint1_linear_1_3490"
            x1="11.176"
            y1="1.3553"
            x2="11.8675"
            y2="20.9071"
            gradientUnits="userSpaceOnUse"
        >
            <stop stopColor="var(--gradient-icons1)" />
            <stop offset="1" stopColor="var(--gradient-icons2)" />
        </linearGradient>
    </defs>
</svg>