<svg
    className="s-eye"
    xmlns="http://www.w3.org/2000/svg"
    width="17"
    height="13"
    viewBox="0 0 17 13"
    fill="none"
>
    <path
        d="M15.7175 8.35877V10.8117C15.7175 11.4862 15.1656 12.0382 14.4911 12.0382H2.22646C1.55191 12.0382 1 11.4862 1 10.8117V2.22646C1 1.55191 1.55191 1 2.22646 1H14.4911C15.1656 1 15.7175 1.55191 15.7175 2.22646V4.67938"
        stroke="url(#paint0_linear_1_3315)"
        strokeLinecap="round"
        strokeLinejoin="round"
    />
    <path
        d="M4.06641 1V12.0382"
        stroke="url(#paint1_linear_1_3315)"
        strokeLinecap="round"
        strokeLinejoin="round"
    />
    <path
        d="M9.9528 4.67993H16.3304V8.35932H9.9528C8.91031 8.17535 8.3584 7.56212 8.3584 6.51962C8.3584 5.47713 8.91031 4.8639 9.9528 4.67993Z"
        stroke="url(#paint2_linear_1_3315)"
        strokeLinecap="round"
        strokeLinejoin="round"
    />
    <path
        d="M10.1982 6.51855H10.8115"
        stroke="url(#paint3_linear_1_3315)"
        strokeLinecap="round"
        strokeLinejoin="round"
    />
    <defs>
        <linearGradient
            id="paint0_linear_1_3315"
            x1="9.09465"
            y1="-0.737487"
            x2="9.56192"
            y2="18.825"
            gradientUnits="userSpaceOnUse"
        >
            <stop stopColor="var(--gradient-icons1)" />
            <stop offset="1" stopColor="var(--gradient-icons2)" />
        </linearGradient>
        <linearGradient
            id="paint1_linear_1_3315"
            x1="4.61641"
            y1="-0.737487"
            x2="10.7406"
            y2="16.6833"
            gradientUnits="userSpaceOnUse"
        >
            <stop stopColor="var(--gradient-icons1)" />
            <stop offset="1" stopColor="var(--gradient-icons2)" />
        </linearGradient>
        <linearGradient
            id="paint2_linear_1_3315"
            x1="12.743"
            y1="4.10077"
            x2="12.8389"
            y2="10.6239"
            gradientUnits="userSpaceOnUse"
        >
            <stop stopColor="var(--gradient-icons1)" />
            <stop offset="1" stopColor="var(--gradient-icons2)" />
        </linearGradient>
        <linearGradient
            id="paint3_linear_1_3315"
            x1="10.5355"
            y1="6.36115"
            x2="10.6274"
            y2="8.12965"
            gradientUnits="userSpaceOnUse"
        >
            <stop stopColor="var(--gradient-icons1)" />
            <stop offset="1" stopColor="var(--gradient-icons2)" />
        </linearGradient>
    </defs>
</svg>