<svg width="14" height="22" viewBox="0 0 14 22" fill="none" xmlns="http://www.w3.org/2000/svg">
<g id="Group 254">
<path id="Rectangle-14_12_" d="M7.15385 3.5564C9.76923 3.5564 11.9231 5.71021 11.9231 8.32559C11.9231 9.17174 11.6923 10.0179 11.2308 10.7871L11 11.2487L11.4615 12.7102C11.6154 13.2486 12 13.6333 12.5385 13.941C13 14.1718 13.3077 14.6334 13.3077 15.1719V15.4795C13.3077 16.0949 12.7692 16.6333 12.1538 16.6333H2.15385C1.53846 16.6333 1 16.0949 1 15.4795V15.1719C1 14.6334 1.30769 14.1718 1.76923 13.941C2.23077 13.7102 2.61539 13.2486 2.84616 12.7102L3.30769 11.2487L3.07692 10.7871C1.69231 8.55632 2.46154 5.55632 4.69231 4.24863C5.46154 3.78709 6.30769 3.5564 7.15385 3.5564Z" stroke="white" stroke-linecap="round" stroke-linejoin="round"/>
<path id="Oval-13_6_" d="M7.1537 21.2488C8.00337 21.2488 8.69216 20.56 8.69216 19.7103C8.69216 18.8607 8.00337 18.1719 7.1537 18.1719C6.30403 18.1719 5.61523 18.8607 5.61523 19.7103C5.61523 20.56 6.30403 21.2488 7.1537 21.2488Z" stroke="white" stroke-linecap="round" stroke-linejoin="round"/>
<path id="Path-57_12_" d="M5.61523 3.5572V2.78797C5.61523 1.94182 6.30754 1.24951 7.1537 1.24951C7.99985 1.24951 8.69216 1.94182 8.69216 2.78797V3.5572" stroke="white" stroke-linecap="round" stroke-linejoin="round"/>
</g>
</svg>
